<svg xmlns="http://www.w3.org/2000/svg" xmlns:xlink="http://www.w3.org/1999/xlink" zoomAndPan="magnify" preserveAspectRatio="xMidYMid meet" version="1.0" viewBox="102.96 232.8 392.54 437.83"><defs><clipPath id="id1"><path d="M 102.964844 354.152344 L 495.507812 354.152344 L 495.507812 670.625 L 102.964844 670.625 Z M 102.964844 354.152344 " clip-rule="nonzero"/></clipPath><clipPath id="id2"><path d="M 102.964844 273.355469 L 495.507812 273.355469 L 495.507812 354.253906 L 102.964844 354.253906 Z M 102.964844 273.355469 " clip-rule="nonzero"/></clipPath><clipPath id="id3"><path d="M 201 232.796875 L 239 232.796875 L 239 316 L 201 316 Z M 201 232.796875 " clip-rule="nonzero"/></clipPath><clipPath id="id4"><path d="M 220 232.796875 L 239 232.796875 L 239 316 L 220 316 Z M 220 232.796875 " clip-rule="nonzero"/></clipPath><clipPath id="id5"><path d="M 356 232.796875 L 395 232.796875 L 395 316 L 356 316 Z M 356 232.796875 " clip-rule="nonzero"/></clipPath><clipPath id="id6"><path d="M 375 232.796875 L 395 232.796875 L 395 316 L 375 316 Z M 375 232.796875 " clip-rule="nonzero"/></clipPath></defs><g clip-path="url(#id1)"><path fill="#f9f9f9" d="M 125.582031 670.625 L 472.890625 670.625 C 485.382812 670.625 495.507812 660.382812 495.507812 647.742188 L 495.507812 354.160156 L 102.964844 354.160156 L 102.964844 647.742188 C 102.964844 660.382812 113.089844 670.625 125.582031 670.625 " fill-opacity="1" fill-rule="nonzero"/></g><g clip-path="url(#id2)"><path fill="#acb38f" d="M 102.964844 296.339844 L 102.964844 354.160156 L 495.507812 354.160156 L 495.507812 296.339844 C 495.507812 283.703125 485.382812 273.457031 472.890625 273.457031 L 125.582031 273.457031 C 113.089844 273.457031 102.964844 283.703125 102.964844 296.339844 " fill-opacity="1" fill-rule="nonzero"/></g><g clip-path="url(#id3)"><path fill="#ffffff" d="M 220.042969 315.566406 C 209.632812 315.566406 201.199219 307.027344 201.199219 296.496094 L 201.199219 251.875 C 201.199219 241.34375 209.632812 232.808594 220.042969 232.808594 C 230.453125 232.808594 238.890625 241.34375 238.890625 251.875 L 238.890625 296.496094 C 238.890625 307.027344 230.453125 315.566406 220.042969 315.566406 " fill-opacity="1" fill-rule="nonzero"/></g><g clip-path="url(#id4)"><path fill="#efefef" d="M 220.042969 232.808594 C 230.453125 232.808594 238.890625 241.34375 238.890625 251.875 L 238.890625 296.496094 C 238.890625 307.027344 230.453125 315.566406 220.042969 315.566406 L 220.042969 232.808594 " fill-opacity="1" fill-rule="nonzero"/></g><g clip-path="url(#id5)"><path fill="#ffffff" d="M 375.640625 315.566406 C 365.230469 315.566406 356.796875 307.03125 356.796875 296.5 L 356.796875 251.875 C 356.796875 241.34375 365.230469 232.808594 375.640625 232.808594 C 386.050781 232.808594 394.488281 241.34375 394.488281 251.875 L 394.488281 296.5 C 394.488281 307.03125 386.050781 315.566406 375.640625 315.566406 " fill-opacity="1" fill-rule="nonzero"/></g><g clip-path="url(#id6)"><path fill="#efefef" d="M 375.640625 232.808594 C 386.050781 232.808594 394.488281 241.34375 394.488281 251.875 L 394.488281 296.5 C 394.488281 307.03125 386.050781 315.566406 375.640625 315.566406 L 375.640625 232.808594 " fill-opacity="1" fill-rule="nonzero"/></g><path fill="#acb38f" d="M 414.726562 470.628906 C 401.910156 405.550781 321.597656 404.464844 301.792969 465.300781 C 281.988281 404.464844 201.671875 405.550781 188.859375 470.628906 C 177.234375 529.671875 301.792969 622.820312 301.792969 622.820312 C 301.792969 622.820312 426.351562 529.671875 414.726562 470.628906 Z M 414.726562 470.628906 " fill-opacity="1" fill-rule="nonzero"/></svg>