<svg xmlns="http://www.w3.org/2000/svg" xmlns:xlink="http://www.w3.org/1999/xlink" zoomAndPan="magnify" preserveAspectRatio="xMidYMid meet" version="1.0" viewBox="69.87 262.24 459.26 348.94"><path fill="#acb38f" d="M 528.84375 517.621094 C 527.761719 513.277344 523.671875 512.214844 519.679688 512.253906 C 513.75 512.3125 507.484375 513.714844 501.738281 515.042969 C 495.597656 516.457031 464.492188 525.316406 464.433594 525.289062 C 461.859375 523.777344 436.234375 456.28125 433.296875 446.964844 C 430.234375 437.226562 427.015625 427.519531 424.546875 417.617188 C 422.046875 407.605469 420.320312 397.292969 420.722656 386.941406 C 421.179688 375.203125 459.800781 283.035156 461.585938 276.800781 C 462.492188 273.632812 463.546875 270.082031 462.277344 266.851562 C 460.015625 261.105469 452.921875 261.898438 448.089844 263.085938 C 447.691406 263.1875 418.535156 270.207031 404.652344 275.316406 C 387.742188 281.53125 306.753906 307.105469 286.78125 320.464844 C 281.894531 323.738281 273.953125 331.230469 282.617188 335.390625 C 283.28125 335.703125 359.464844 372.792969 375.738281 382.726562 C 382.367188 386.765625 389.039062 390.972656 394.21875 396.84375 C 399.96875 403.371094 404.25 411.527344 408.476562 419.070312 C 418.613281 437.175781 450.8125 523.914062 450.941406 532.605469 C 446.695312 535.570312 436.558594 539.269531 431.777344 541.550781 C 427.589844 543.53125 403.96875 553.667969 400.269531 560.265625 C 391.730469 575.496094 417.628906 570.136719 423.738281 568.675781 C 430.714844 567.015625 465.476562 557.09375 475.792969 553.394531 C 487.921875 549.054688 499.960938 543.972656 511.484375 538.226562 C 518.207031 534.867188 531.234375 527.171875 528.84375 517.621094 Z M 69.953125 572.148438 C 70.527344 567.699219 74.460938 566.175781 78.421875 565.746094 C 84.324219 565.105469 90.707031 565.777344 96.578125 566.421875 C 102.835938 567.113281 134.765625 572.285156 134.816406 572.234375 C 137.203125 570.441406 154.773438 500.417969 156.597656 490.820312 C 158.5 480.789062 160.558594 470.777344 161.859375 460.652344 C 163.164062 450.417969 163.683594 439.976562 162.074219 429.742188 C 160.246094 418.132812 111.128906 331.105469 108.628906 325.125 C 107.359375 322.082031 105.894531 318.679688 106.78125 315.320312 C 108.355469 309.351562 115.492188 309.308594 120.429688 309.921875 C 120.84375 309.976562 150.609375 313.546875 165 316.996094 C 182.515625 321.195312 265.941406 337.144531 287.335938 348.082031 C 292.578125 350.753906 301.339844 357.273438 293.210938 362.414062 C 292.597656 362.804688 221.261719 408.542969 206.253906 420.300781 C 200.144531 425.078125 194.019531 430.046875 189.558594 436.484375 C 184.601562 443.636719 181.304688 452.230469 177.988281 460.222656 C 170.035156 479.382812 148.1875 569.289062 149.078125 577.933594 C 153.640625 580.382812 164.132812 582.878906 169.15625 584.578125 C 173.546875 586.0625 198.195312 593.367188 202.632812 599.484375 C 212.890625 613.621094 186.542969 611.320312 180.300781 610.578125 C 173.175781 609.75 137.492188 603.953125 126.816406 601.484375 C 114.273438 598.589844 101.71875 594.949219 89.601562 590.578125 C 82.527344 588.03125 68.691406 581.914062 69.953125 572.148438 " fill-opacity="1" fill-rule="nonzero"/><path fill="#ffffff" d="M 304.0625 290.542969 C 304.003906 291.40625 303.632812 292.605469 302.617188 292.730469 C 302.589844 292.738281 302.558594 292.734375 302.519531 292.734375 C 302.148438 292.941406 301.742188 293.027344 301.339844 292.921875 C 301.292969 292.90625 301.253906 292.886719 301.203125 292.875 C 301.019531 292.855469 300.863281 292.777344 300.753906 292.640625 C 300.03125 292.078125 300.375 291.039062 301.039062 290.179688 C 301.351562 289.644531 301.800781 289.183594 302.324219 288.882812 C 302.578125 288.734375 302.949219 288.703125 303.144531 288.992188 C 303.15625 289.015625 303.164062 289.042969 303.175781 289.066406 C 303.761719 289.179688 304.113281 289.796875 304.0625 290.542969 Z M 256.503906 332.734375 C 255.988281 332.984375 255.453125 333.027344 254.933594 332.933594 C 253.207031 332.839844 251.578125 331.25 251.527344 329.542969 C 251.460938 327.433594 253.539062 326.292969 255.226562 327.617188 C 255.394531 327.757812 255.589844 327.933594 255.78125 328.140625 C 256.027344 328.292969 256.25 328.46875 256.4375 328.679688 C 257.394531 329.738281 258.191406 331.910156 256.503906 332.734375 Z M 259.257812 318.308594 C 257.335938 318.539062 257.285156 320.863281 258.242188 322.140625 C 260 324.476562 263.34375 324.9375 264.722656 327.679688 C 265.011719 328.269531 266.496094 328.023438 266.566406 327.757812 C 267.421875 324.257812 263.304688 317.816406 259.257812 318.308594 Z M 306.609375 303.394531 C 306.414062 303.898438 306.101562 304.425781 305.703125 304.886719 C 305.398438 305.46875 304.980469 305.984375 304.453125 306.371094 C 303.4375 307.109375 302.023438 307.09375 301.144531 306.132812 L 301.144531 306.125 C 299.261719 304.75 299.710938 301.414062 300.773438 299.726562 C 301.457031 298.636719 302.597656 297.785156 303.683594 297.710938 C 305.058594 297.378906 305.75 298.378906 306.015625 299.597656 C 306.101562 299.726562 306.171875 299.859375 306.238281 300 C 306.902344 300.945312 307.039062 302.253906 306.609375 303.394531 Z M 305.457031 332.90625 C 297.640625 333.179688 292.246094 331.167969 287.699219 324.636719 C 284.253906 319.691406 282.5 313.332031 286.664062 308.261719 C 288.957031 305.46875 293.027344 304.210938 294.550781 308.378906 C 296.003906 312.363281 294.382812 316.859375 294.714844 320.933594 C 295.164062 326.449219 298.714844 329.429688 303.449219 330.675781 C 304.167969 330.714844 304.890625 330.757812 305.59375 330.839844 C 306.785156 330.976562 306.617188 332.867188 305.457031 332.90625 Z M 436.019531 312.546875 C 434.507812 311.058594 432.273438 311.28125 430.460938 311.960938 C 424.78125 314.109375 420.527344 320 416.457031 324.230469 C 408.503906 332.511719 395.976562 327.410156 385.847656 328.15625 C 381.476562 328.476562 377.027344 329.253906 373.078125 331.226562 C 368.421875 333.550781 364.859375 337.632812 360 339.3125 C 351.492188 342.25 342.652344 341.3125 333.824219 338.109375 C 328.554688 336.199219 321.617188 330.90625 315.742188 333.847656 C 309.976562 336.726562 316.210938 341.8125 319.226562 343.988281 C 322.230469 346.167969 325.917969 347.46875 329.140625 349.378906 C 331.394531 350.726562 346.039062 359.59375 351.171875 362.289062 C 360.703125 367.3125 370.296875 371.847656 380.617188 375.039062 C 388.367188 377.4375 397.175781 379.222656 405.082031 376.425781 C 415.070312 372.890625 419.492188 362.402344 423.210938 353.3125 C 425.960938 346.609375 428.761719 339.820312 431.101562 332.96875 C 432.566406 328.695312 435.667969 319.496094 435.816406 319.113281 C 436.34375 317.691406 436.304688 312.828125 436.019531 312.546875 Z M 277.953125 344.175781 C 278.03125 340.265625 276.566406 333.886719 271.777344 333.300781 C 267.609375 332.785156 265.558594 336.953125 266.808594 340.425781 C 267.414062 342.109375 268.605469 343.375 269.132812 345.136719 C 269.910156 347.757812 269.636719 350.414062 268.9375 353.007812 C 268.339844 355.222656 266.90625 357.429688 267.8125 359.722656 C 268.28125 360.921875 277.796875 350.921875 277.953125 344.175781 Z M 139.164062 364.140625 C 139.34375 364.5 143.507812 373.273438 145.457031 377.351562 C 148.585938 383.878906 152.164062 390.289062 155.667969 396.628906 C 160.429688 405.226562 166.050781 415.128906 176.382812 417.46875 C 184.550781 419.324219 193.097656 416.523438 200.511719 413.234375 C 210.386719 408.863281 219.382812 403.234375 228.273438 397.136719 C 233.042969 393.847656 246.558594 383.339844 248.644531 381.742188 C 251.613281 379.46875 255.125 377.742188 257.867188 375.222656 C 260.597656 372.714844 266.199219 366.941406 260.128906 364.746094 C 253.964844 362.519531 247.679688 368.578125 242.675781 371.097656 C 234.28125 375.300781 225.609375 377.273438 216.816406 375.339844 C 211.792969 374.25 207.773438 370.609375 202.894531 368.84375 C 198.738281 367.339844 194.230469 367.085938 189.847656 367.28125 C 179.699219 367.730469 167.855469 374.257812 158.984375 366.960938 C 154.449219 363.234375 149.539062 357.878906 143.648438 356.414062 C 141.765625 355.945312 139.519531 355.984375 138.195312 357.632812 C 137.945312 357.957031 138.476562 362.785156 139.164062 364.140625 " fill-opacity="1" fill-rule="nonzero"/><path fill="#ffffff" d="M 302.589844 290.015625 C 302.167969 290.105469 301.984375 290.480469 301.769531 290.816406 C 301.574219 291.117188 301.292969 291.433594 301.371094 291.804688 C 301.398438 291.957031 301.507812 292.070312 301.671875 292.0625 C 302.070312 292.035156 302.277344 291.726562 302.472656 291.414062 C 302.675781 291.085938 303 290.683594 302.929688 290.285156 C 302.902344 290.132812 302.753906 289.980469 302.589844 290.015625 Z M 303.574219 299.738281 C 301.703125 299.953125 300.949219 302.597656 301.644531 304.125 C 301.789062 304.433594 302.179688 304.367188 302.304688 304.101562 C 302.597656 303.519531 302.578125 302.785156 302.734375 302.164062 C 302.929688 301.382812 303.417969 301.09375 303.976562 300.578125 C 304.285156 300.28125 303.996094 299.6875 303.574219 299.738281 Z M 290.773438 308.625 C 288.175781 308.164062 286.371094 310.925781 285.738281 313.113281 C 284.8125 316.289062 285.738281 320.722656 288.292969 322.902344 C 288.46875 323.054688 288.8125 322.902344 288.761719 322.648438 C 288.371094 320.398438 287.046875 318.453125 286.949219 316.109375 C 286.820312 313.21875 288.089844 310.417969 290.929688 309.375 C 291.347656 309.21875 291.105469 308.679688 290.773438 308.625 Z M 254.574219 330.113281 C 254.328125 329.644531 254.417969 329.039062 254.320312 328.535156 C 254.230469 328.109375 253.558594 328.085938 253.394531 328.464844 C 253.03125 329.292969 253.128906 331.292969 254.347656 331.402344 C 254.601562 331.425781 254.894531 331.304688 254.964844 331.039062 C 255.070312 330.660156 254.730469 330.402344 254.574219 330.113281 Z M 264.664062 323.550781 C 264.527344 323.03125 264 322.71875 263.648438 322.335938 C 263.21875 321.882812 262.835938 321.390625 262.417969 320.933594 C 261.695312 320.164062 260.886719 319.476562 259.773438 319.628906 C 259.316406 319.6875 259.363281 320.40625 259.773438 320.503906 C 260.90625 320.761719 261.519531 321.632812 262.195312 322.492188 C 262.679688 323.09375 263.441406 324.273438 264.339844 324.066406 C 264.566406 324.015625 264.722656 323.773438 264.664062 323.550781 Z M 273.589844 336.914062 C 272.496094 334.632812 269.824219 335.78125 269.25 337.796875 C 268.886719 339.050781 269.230469 340.324219 269.707031 341.503906 C 270.222656 342.789062 270.730469 344.621094 271.609375 345.675781 C 271.746094 345.847656 272.066406 345.859375 272.183594 345.652344 C 272.859375 344.511719 272.242188 343.15625 271.746094 342.042969 C 271.074219 340.539062 269.578125 336.1875 272.964844 337.554688 C 273.386719 337.726562 273.804688 337.351562 273.589844 336.914062 Z M 381.203125 333.980469 C 374.140625 334.683594 368.96875 340.273438 362.820312 343.234375 C 355.09375 346.957031 343.589844 346.609375 336.105469 342.382812 C 335.597656 342.097656 335.109375 342.839844 335.539062 343.222656 C 341.265625 348.355469 352.15625 348.359375 359.152344 346.375 C 362.65625 345.378906 365.542969 343.582031 368.53125 341.546875 C 372.695312 338.695312 376.65625 336.4375 381.378906 334.605469 C 381.730469 334.464844 381.574219 333.941406 381.203125 333.980469 Z M 213.554688 378.582031 C 207.316406 376.570312 202.867188 370.929688 195.929688 370.695312 C 192.46875 370.582031 189.1875 371.828125 185.910156 372.785156 C 183.167969 373.574219 180.035156 373.476562 177.5 374.660156 C 177.363281 374.71875 177.410156 374.941406 177.558594 374.941406 C 184.289062 375.144531 190.769531 371.234375 197.367188 372.316406 C 201.589844 373.007812 204.410156 375.574219 207.835938 377.820312 C 209.785156 379.105469 211.222656 379.925781 213.496094 379.300781 C 213.835938 379.214844 213.933594 378.707031 213.554688 378.582031 Z M 430.175781 319.679688 C 428.617188 317.675781 426.089844 319.550781 425.394531 321.148438 C 425.152344 321.703125 425.921875 322.226562 426.3125 321.726562 C 428.558594 321.792969 429.101562 322.570312 427.941406 324.054688 C 427.726562 324.523438 427.511719 324.992188 427.296875 325.457031 C 426.644531 326.867188 425.902344 328.226562 425.257812 329.636719 C 423.738281 332.996094 422.535156 336.5 421.386719 339.996094 C 419.132812 346.824219 415.414062 353.839844 414.027344 360.84375 C 413.910156 361.457031 414.894531 361.789062 415.199219 361.253906 C 420.984375 350.988281 422.75 338.871094 427.71875 328.234375 C 428.578125 326.402344 431.796875 321.757812 430.175781 319.679688 Z M 166.589844 405.714844 C 157.722656 395.671875 152.378906 382.503906 146.332031 370.714844 C 145.414062 368.929688 142.714844 364.960938 144.558594 363.007812 C 146.605469 360.832031 150.710938 364.785156 152.121094 365.828125 C 152.335938 365.984375 152.132812 366.296875 151.90625 366.257812 C 150.878906 366.09375 150.191406 365.4375 149.253906 365.195312 C 148.445312 364.988281 146.238281 364.460938 145.800781 365.886719 C 145.566406 366.628906 147.121094 368.84375 147.421875 369.429688 C 148.992188 372.425781 150.527344 375.4375 152.050781 378.464844 C 156.707031 387.671875 162.835938 395.925781 167.664062 404.992188 C 168.015625 405.65625 167.070312 406.269531 166.589844 405.714844 " fill-opacity="1" fill-rule="nonzero"/><path fill="#3b281a" d="M 410.308594 371.332031 C 403.976562 374.679688 398.777344 377.058594 391.402344 376.757812 C 383.867188 376.453125 377.605469 373.984375 371.027344 370.542969 C 365.359375 367.574219 359.699219 364.53125 353.980469 361.632812 C 350.976562 360.101562 347.933594 358.667969 344.957031 357.066406 C 342.808594 355.917969 339.636719 355.242188 337.773438 353.828125 C 337.519531 353.632812 337.140625 353.964844 337.34375 354.226562 C 338.554688 355.78125 349.53125 360.871094 353.257812 362.804688 C 360.234375 366.433594 367.046875 370.394531 374.050781 373.964844 C 385.085938 379.59375 401.265625 381.632812 410.972656 372.21875 C 411.375 371.828125 410.808594 371.078125 410.308594 371.332031 Z M 430.058594 560.519531 C 427.074219 561.320312 424.050781 562.011719 421.054688 562.800781 C 418.175781 563.5625 406.308594 565.289062 411.207031 559.40625 C 413.460938 556.703125 416.535156 554.703125 419.347656 552.636719 C 419.578125 552.460938 419.367188 552.109375 419.101562 552.246094 C 416.136719 553.796875 408.347656 558.097656 408.699219 562.148438 C 409.296875 569.007812 427.53125 562.578125 430.234375 560.917969 C 430.449219 560.792969 430.304688 560.460938 430.058594 560.519531 Z M 515.710938 521.042969 C 511.320312 516.789062 499.082031 521.433594 494.769531 523.589844 C 494.183594 523.882812 494.398438 524.90625 495.101562 524.742188 C 498.039062 524.039062 500.828125 523.082031 503.71875 522.273438 C 506.546875 521.472656 516.898438 519.738281 514.195312 525.667969 C 512.46875 529.464844 506.1875 532.371094 502.789062 534.226562 C 494.039062 539.023438 485.238281 542.800781 475.949219 546.371094 C 469.265625 548.9375 461.390625 550.117188 455.300781 553.972656 C 454.988281 554.167969 455.28125 554.664062 455.613281 554.527344 C 466.238281 550.089844 477.722656 547.972656 488.3125 543.269531 C 496.027344 539.84375 504.546875 536.175781 511.203125 530.898438 C 513.632812 528.964844 519.144531 524.371094 515.710938 521.042969 Z M 417.316406 390.980469 C 414.027344 389.898438 410.058594 390.238281 406.855469 391.507812 C 404.144531 392.589844 399.214844 395.507812 398.535156 398.667969 C 398.417969 399.195312 399.078125 399.410156 399.371094 399 C 401.234375 396.464844 404.777344 394.296875 407.6875 393.253906 C 410.933594 392.082031 414.007812 392.796875 417.257812 392.277344 C 417.941406 392.171875 417.910156 391.175781 417.316406 390.980469 Z M 419.160156 372.660156 C 414.585938 376.726562 410.953125 381.144531 405.070312 383.546875 C 402.210938 384.707031 399.078125 385.28125 396.015625 385.546875 C 393.449219 385.761719 386.589844 385.234375 386.589844 385.234375 C 386.277344 384.796875 385.613281 385.515625 386.191406 385.789062 C 396.941406 391.011719 414.925781 383.671875 420.019531 373.234375 C 420.292969 372.679688 419.578125 372.289062 419.160156 372.660156 Z M 464.875 526.964844 C 464.394531 526.808594 464.160156 527.601562 465.078125 528.300781 C 465.480469 528.613281 466.355469 529.269531 467.148438 530.117188 C 466.816406 530.886719 466.5625 531.550781 465.839844 532.128906 C 465.214844 532.625 464.503906 532.984375 463.808594 533.367188 C 463.089844 533.777344 462.375 534.214844 461.644531 534.585938 C 460.816406 534.996094 459.859375 535.230469 459.105469 535.738281 C 458.988281 535.816406 458.96875 535.980469 459.097656 536.058594 C 460.824219 537.09375 463.574219 535.023438 465.039062 534.207031 C 466.015625 533.667969 467.625 532.691406 468.179688 531.492188 C 469.195312 533.277344 469.089844 535.472656 464.785156 537.289062 C 462.101562 538.410156 459.535156 539.824219 456.628906 540.195312 C 453.632812 540.578125 448.285156 539.707031 451.664062 535.414062 C 451.953125 535.0625 451.417969 534.652344 451.085938 534.90625 C 449.601562 536.058594 448.492188 539.09375 449.691406 540.703125 C 451.972656 543.796875 458.648438 542.03125 461.4375 541.035156 C 464.335938 540 469.910156 538.089844 470.71875 534.59375 C 471.460938 531.394531 467.578125 527.855469 464.875 526.964844 Z M 438.578125 277.054688 C 431.277344 279.597656 424.15625 282.382812 416.847656 284.863281 C 401.351562 290.113281 386.152344 296.15625 370.902344 302.082031 C 356.058594 307.855469 341.199219 313.730469 326.203125 319.089844 C 318.699219 321.765625 311.117188 324.136719 303.417969 326.152344 C 297.582031 327.675781 291.183594 328.160156 285.164062 330.289062 C 284.1875 330.632812 284.546875 331.582031 285.632812 331.453125 C 316.160156 327.835938 344.574219 315.859375 373.007812 304.789062 C 387.957031 298.96875 402.875 293.054688 418.078125 287.898438 C 425.355469 285.425781 432.597656 283.007812 439.710938 280.050781 C 443.164062 278.617188 446.949219 277.328125 450.042969 275.1875 C 452.589844 273.429688 456.832031 270.519531 456.792969 269 C 456.746094 267.023438 449.796875 273.140625 438.578125 277.054688 Z M 112.476562 316.8125 C 112.617188 318.328125 117.167969 320.722656 119.902344 322.171875 C 123.226562 323.9375 127.144531 324.773438 130.738281 325.796875 C 138.144531 327.902344 145.613281 329.457031 153.136719 331.0625 C 168.832031 334.410156 184.335938 338.542969 199.871094 342.574219 C 229.40625 350.253906 259.019531 358.832031 289.765625 358.859375 C 290.859375 358.859375 291.101562 357.875 290.085938 357.640625 C 283.863281 356.234375 277.453125 356.507812 271.480469 355.671875 C 263.597656 354.566406 255.78125 353.09375 248.023438 351.320312 C 232.5 347.746094 217.0625 343.644531 201.644531 339.644531 C 185.808594 335.535156 170.003906 331.308594 154.011719 327.90625 C 146.457031 326.296875 139.054688 324.359375 131.511719 322.683594 C 119.910156 320.113281 112.289062 314.84375 112.476562 316.8125 Z M 170.042969 413.984375 C 180.777344 422.191406 196.601562 418.277344 206.90625 411.398438 C 213.453125 407.027344 219.746094 402.304688 226.253906 397.886719 C 229.726562 395.535156 240.042969 389.195312 241.054688 387.515625 C 241.242188 387.222656 240.820312 386.941406 240.589844 387.164062 C 238.910156 388.792969 235.835938 389.828125 233.824219 391.222656 C 231.066406 393.15625 228.207031 394.941406 225.394531 396.804688 C 220.058594 400.355469 214.800781 404.03125 209.511719 407.652344 C 203.382812 411.839844 197.449219 415.019531 190.003906 416.199219 C 182.707031 417.359375 177.273438 415.605469 170.589844 413.019531 C 170.070312 412.824219 169.59375 413.632812 170.042969 413.984375 Z M 172.941406 603.640625 C 175.820312 604.964844 194.679688 609.21875 194.476562 602.34375 C 194.359375 598.273438 186.113281 594.917969 182.980469 593.726562 C 182.707031 593.621094 182.53125 593.992188 182.796875 594.136719 C 185.820312 595.855469 189.117188 597.492188 191.664062 599.914062 C 197.214844 605.179688 185.234375 604.859375 182.289062 604.429688 C 179.214844 603.992188 176.132812 603.667969 173.066406 603.21875 C 172.824219 603.179688 172.714844 603.53125 172.941406 603.640625 Z M 89.023438 583.269531 C 96.25 587.738281 105.136719 590.382812 113.199219 592.886719 C 124.261719 596.324219 135.917969 597.082031 146.992188 600.246094 C 147.335938 600.34375 147.574219 599.824219 147.242188 599.660156 C 140.738281 596.539062 132.777344 596.285156 125.835938 594.519531 C 116.195312 592.058594 107.023438 589.335938 97.765625 585.601562 C 94.175781 584.148438 87.597656 581.992188 85.4375 578.429688 C 82.0625 572.859375 92.546875 573.367188 95.445312 573.832031 C 98.414062 574.300781 101.296875 574.925781 104.296875 575.277344 C 105.011719 575.367188 105.101562 574.320312 104.492188 574.097656 C 99.957031 572.457031 87.265625 569.277344 83.394531 574.019531 C 80.378906 577.71875 86.382812 581.640625 89.023438 583.269531 Z M 166.140625 434.628906 C 169.425781 434.765625 172.394531 433.703125 175.761719 434.484375 C 178.765625 435.183594 182.53125 436.914062 184.6875 439.222656 C 185.019531 439.59375 185.652344 439.300781 185.476562 438.785156 C 184.433594 435.730469 179.203125 433.410156 176.375 432.648438 C 173.046875 431.761719 169.078125 431.886719 165.933594 433.351562 C 165.359375 433.613281 165.445312 434.601562 166.140625 434.628906 Z M 161.171875 416.035156 C 167.445312 425.820312 186.160156 431 196.230469 424.558594 C 196.777344 424.21875 196.035156 423.585938 195.773438 424.054688 C 195.773438 424.054688 189.019531 425.390625 186.453125 425.46875 C 183.371094 425.566406 180.199219 425.359375 177.222656 424.53125 C 171.097656 422.832031 166.96875 418.871094 161.953125 415.371094 C 161.503906 415.046875 160.839844 415.515625 161.171875 416.035156 Z M 134.582031 573.960938 C 135.03125 573.746094 135.359375 574.507812 134.535156 575.308594 C 134.167969 575.667969 133.371094 576.417969 132.683594 577.347656 C 133.105469 578.078125 133.433594 578.710938 134.226562 579.199219 C 134.894531 579.621094 135.648438 579.894531 136.375 580.195312 C 137.144531 580.507812 137.898438 580.867188 138.675781 581.152344 C 139.542969 581.464844 140.515625 581.570312 141.332031 581.992188 C 141.457031 582.058594 141.488281 582.214844 141.371094 582.3125 C 139.78125 583.542969 136.804688 581.804688 135.253906 581.171875 C 134.230469 580.75 132.511719 579.960938 131.816406 578.839844 C 131.019531 580.730469 131.378906 582.898438 135.875 584.195312 C 138.660156 584.996094 141.375 586.109375 144.304688 586.128906 C 147.324219 586.167969 152.542969 584.671875 148.679688 580.808594 C 148.359375 580.488281 148.839844 580.019531 149.191406 580.242188 C 150.804688 581.210938 152.265625 584.089844 151.261719 585.835938 C 149.351562 589.160156 142.515625 588.195312 139.628906 587.53125 C 136.628906 586.839844 130.871094 585.589844 129.660156 582.214844 C 128.554688 579.121094 132 575.152344 134.582031 573.960938 " fill-opacity="1" fill-rule="nonzero"/></svg>