<svg xmlns="http://www.w3.org/2000/svg" xmlns:xlink="http://www.w3.org/1999/xlink" zoomAndPan="magnify" preserveAspectRatio="xMidYMid meet" version="1.0" viewBox="100.47 181.09 397.99 417.33"><defs><clipPath id="id1"><path d="M 205 181.089844 L 321 181.089844 L 321 264 L 205 264 Z M 205 181.089844 " clip-rule="nonzero"/></clipPath></defs><g clip-path="url(#id1)"><path fill="#acb38f" d="M 291.136719 185.519531 C 272.601562 194.820312 254.015625 204.148438 236.714844 215.601562 C 230.066406 220.003906 223.546875 224.773438 218.351562 230.824219 C 210.707031 239.734375 206.226562 251.320312 205.878906 263.0625 C 206.910156 254.953125 207.933594 246.847656 208.964844 238.738281 C 209.296875 236.113281 209.660156 233.402344 211.011719 231.132812 C 212.671875 228.347656 215.585938 226.59375 218.382812 224.960938 C 241.214844 211.613281 264.039062 198.257812 286.871094 184.910156 C 289.953125 183.105469 293.210938 181.253906 296.777344 181.160156 C 298.945312 181.109375 301.0625 181.710938 303.140625 182.3125 C 308.960938 183.992188 314.78125 185.667969 320.601562 187.347656 C 281.632812 208.527344 244.585938 233.242188 210.054688 261.085938 C 208.898438 262.019531 206.1875 261.640625 207.113281 260.472656 C 212.964844 255 218.824219 249.519531 225.179688 244.648438 C 253.0625 223.296875 290.101562 213.992188 312.9375 187.300781 C 308.957031 188.023438 304.757812 187.496094 301.085938 185.792969 C 299.488281 185.058594 297.929688 184.089844 296.171875 184 C 294.402344 183.902344 292.722656 184.722656 291.136719 185.519531 " fill-opacity="1" fill-rule="nonzero"/></g><path fill="#acb38f" d="M 211.628906 233.820312 C 221.050781 235.667969 230.652344 236.613281 240.257812 236.652344 C 232.386719 235.21875 224.515625 233.785156 216.644531 232.355469 C 214.382812 231.941406 211.074219 232.347656 211.117188 234.648438 L 211.628906 233.820312 " fill-opacity="1" fill-rule="nonzero"/><path fill="#acb38f" d="M 251.007812 207.367188 C 261.410156 207.9375 271.757812 209.503906 281.863281 212.03125 C 273.625 209.464844 265.390625 206.894531 257.160156 204.332031 C 256.476562 204.121094 255.765625 203.902344 255.0625 204.019531 C 252.789062 204.375 251.773438 207.800781 249.472656 207.726562 C 249.402344 206.917969 249.335938 206.105469 249.265625 205.289062 L 251.007812 207.367188 " fill-opacity="1" fill-rule="nonzero"/><path fill="#acb38f" d="M 206.3125 264.800781 C 233.835938 263.421875 261.457031 264.089844 288.875 266.789062 C 295.125 239.546875 313.320312 216.09375 318.769531 188.679688 C 316.109375 190.390625 313.457031 192.089844 310.800781 193.800781 C 276.804688 215.6875 243.292969 238.335938 210.3125 261.722656 C 245.140625 239.765625 279.984375 217.808594 314.820312 195.851562 C 303.285156 217.929688 293.234375 240.777344 284.765625 264.207031 C 280.699219 260.621094 274.777344 259.992188 269.398438 260.65625 C 264.019531 261.320312 258.816406 263.089844 253.425781 263.648438 C 244.035156 264.617188 234.667969 261.863281 225.230469 261.671875 C 218.804688 261.53125 212.351562 262.605469 206.3125 264.800781 " fill-opacity="1" fill-rule="nonzero"/><path fill="#acb38f" d="M 250.722656 206.042969 C 246.292969 214.953125 243.40625 224.632812 242.234375 234.519531 C 246.796875 224.53125 250.667969 214.21875 253.808594 203.691406 C 252.621094 204.023438 251.4375 204.355469 250.246094 204.6875 L 250.722656 206.042969 " fill-opacity="1" fill-rule="nonzero"/><path fill="#acb38f" d="M 288.617188 184.292969 C 286.347656 192.945312 284.488281 201.703125 283.027344 210.527344 C 285.253906 208.34375 286.1875 205.203125 287.042969 202.207031 C 288.886719 195.714844 290.730469 189.21875 292.570312 182.726562 C 290.507812 183.351562 288.589844 184.46875 287.03125 185.960938 L 288.617188 184.292969 " fill-opacity="1" fill-rule="nonzero"/><path fill="#acb38f" d="M 281.761719 225.425781 C 284.121094 237.304688 284.980469 249.484375 284.316406 261.582031 C 281.605469 258.058594 277.757812 255.628906 273.992188 253.273438 C 265.0625 247.683594 256.132812 242.101562 247.210938 236.515625 C 246.375 238.34375 244.660156 239.742188 242.707031 240.199219 C 247.222656 240.75 251.277344 243.128906 255.183594 245.449219 C 265.289062 251.457031 275.386719 257.464844 285.488281 263.46875 C 285.09375 246.808594 284.355469 230.160156 283.285156 213.53125 C 280.195312 216.363281 280.945312 221.316406 281.761719 225.425781 " fill-opacity="1" fill-rule="nonzero"/><path fill="#acb38f" d="M 280.214844 265.789062 C 282.964844 269 288.105469 270.289062 291.59375 267.898438 C 295.082031 265.511719 295.273438 259.292969 291.519531 257.347656 C 289.984375 259.574219 293.394531 263.0625 291.613281 265.097656 C 291.074219 265.714844 290.214844 265.929688 289.402344 266.082031 C 286.453125 266.644531 283.425781 266.8125 280.4375 266.585938 C 280.632812 267.351562 281.285156 267.972656 282.050781 268.140625 L 280.214844 265.789062 " fill-opacity="1" fill-rule="nonzero"/><path fill="#acb38f" d="M 280.574219 269.210938 C 279.636719 270.421875 280.378906 272.351562 281.71875 273.097656 C 283.066406 273.84375 284.722656 273.6875 286.210938 273.296875 C 292.339844 271.695312 297.265625 266.203125 298.199219 259.933594 C 296.542969 259.582031 294.886719 259.234375 293.234375 258.890625 C 295.976562 259.507812 297.144531 263.125 296.078125 265.722656 C 295.007812 268.324219 292.4375 269.980469 289.855469 271.074219 C 288.226562 271.769531 286.394531 272.308594 284.710938 271.761719 C 283.03125 271.222656 281.753906 269.179688 282.609375 267.625 C 281.222656 268.324219 280.375 269.953125 280.597656 271.480469 C 281.355469 271.222656 282.117188 270.972656 282.878906 270.714844 L 280.574219 269.210938 " fill-opacity="1" fill-rule="nonzero"/><path fill="#acb38f" d="M 297.175781 263.960938 C 296.144531 262.5625 297.890625 260.816406 299.40625 260.011719 C 327.378906 245.066406 360.546875 239.777344 391.609375 246.15625 C 422.664062 252.539062 451.296875 270.730469 469.558594 296.675781 C 472.738281 301.191406 475.609375 305.921875 478.292969 310.753906 C 480.03125 313.886719 481.707031 317.070312 483.277344 320.320312 C 475.167969 304.539062 461.671875 292.195312 448.496094 280.257812 C 440.15625 272.707031 431.753906 265.109375 422.0625 259.417969 C 403.453125 248.488281 381.019531 245.289062 359.515625 247.226562 C 338.011719 249.175781 317.238281 255.984375 297.175781 263.960938 " fill-opacity="1" fill-rule="nonzero"/><path fill="#acb38f" d="M 485.4375 324.9375 C 484.835938 323.589844 484.207031 322.246094 483.5625 320.910156 C 483.730469 321.222656 483.890625 321.539062 484.042969 321.855469 C 484.53125 322.875 485.011719 323.90625 485.4375 324.9375 " fill-opacity="1" fill-rule="nonzero"/><path fill="#acb38f" d="M 329.101562 505.605469 C 328.921875 505.996094 328.757812 506.375 328.597656 506.746094 C 327.726562 506.5 326.871094 506.25 326.007812 505.984375 C 318.898438 503.894531 311.859375 501.503906 304.878906 499.089844 C 298.753906 496.957031 292.589844 494.785156 286.949219 491.589844 C 271.78125 483.019531 261.546875 467.945312 252.742188 452.90625 C 248.082031 444.933594 243.652344 436.78125 240.117188 428.25 C 232.082031 408.886719 228.839844 387.582031 230.523438 366.695312 C 230.542969 366.609375 230.542969 366.53125 230.554688 366.445312 C 231.039062 360.496094 231.933594 354.582031 233.226562 348.757812 C 233.554688 347.265625 233.910156 345.792969 234.300781 344.328125 C 234.3125 344.234375 234.332031 344.148438 234.363281 344.0625 C 241.613281 316.371094 258.15625 291.203125 280.671875 273.550781 C 282.257812 272.289062 285.730469 272.191406 285.152344 274.140625 C 275.179688 278.699219 268.78125 288.445312 262.921875 297.71875 C 256.054688 308.5625 249.164062 319.511719 243.882812 331.175781 C 243.738281 331.476562 243.601562 331.792969 243.476562 332.109375 C 242.398438 334.519531 241.402344 336.960938 240.484375 339.457031 C 239.90625 341.015625 239.367188 342.589844 238.875 344.171875 C 238.402344 345.644531 237.960938 347.128906 237.554688 348.613281 C 235.984375 354.339844 234.878906 360.167969 234.207031 366.042969 C 234.183594 366.191406 234.171875 366.339844 234.160156 366.496094 C 230.289062 401.652344 241.917969 438.566406 263.207031 467.292969 C 267.585938 473.191406 272.371094 478.839844 278.15625 483.359375 C 285.894531 489.398438 295.09375 493.1875 304.214844 496.773438 C 311.546875 499.664062 318.941406 502.472656 326.460938 504.800781 C 327.335938 505.078125 328.21875 505.355469 329.101562 505.605469 " fill-opacity="1" fill-rule="nonzero"/><path fill="#acb38f" d="M 346.460938 509.542969 C 346.640625 509.566406 346.828125 509.597656 347.007812 509.617188 C 346.828125 510.082031 346.652344 510.535156 346.480469 510.988281 C 345.585938 510.839844 344.703125 510.660156 343.820312 510.484375 C 343.976562 510.058594 344.125 509.617188 344.261719 509.175781 C 344.988281 509.316406 345.734375 509.429688 346.460938 509.542969 " fill-opacity="1" fill-rule="nonzero"/><path fill="#acb38f" d="M 496.984375 397.234375 C 495.175781 407.503906 491.640625 417.402344 487.351562 426.90625 C 476.628906 450.582031 460.777344 472.199219 440.09375 487.9375 C 419.421875 503.691406 393.785156 513.34375 367.792969 513.125 C 364.796875 513.105469 361.828125 512.953125 358.863281 512.691406 C 357.0625 512.535156 355.277344 512.335938 353.496094 512.101562 C 353.570312 511.882812 353.644531 511.671875 353.71875 511.457031 C 353.84375 511.101562 353.972656 510.765625 354.085938 510.410156 C 355.894531 510.566406 357.71875 510.660156 359.542969 510.703125 C 385.46875 511.417969 411.554688 502.9375 432.914062 488.082031 C 457.886719 470.714844 476.597656 445.113281 487.945312 416.875 C 490.621094 410.21875 492.910156 403.371094 494.207031 396.328125 C 496.605469 383.179688 495.460938 369.625 493.5 356.402344 C 491.914062 345.707031 489.765625 334.972656 485.5 325.0625 C 495.765625 347.824219 501.308594 372.851562 496.984375 397.234375 " fill-opacity="1" fill-rule="nonzero"/><path fill="#acb38f" d="M 245.679688 363.875 C 245.617188 364.347656 245.566406 364.824219 245.527344 365.296875 C 245.472656 365.75 245.429688 366.191406 245.386719 366.644531 C 245.273438 367.917969 245.175781 369.179688 245.101562 370.445312 C 245.148438 369.179688 245.226562 367.917969 245.335938 366.644531 C 245.386719 366.203125 245.441406 365.75 245.472656 365.296875 C 245.542969 364.824219 245.601562 364.359375 245.679688 363.875 " fill-opacity="1" fill-rule="nonzero"/><path fill="#acb38f" d="M 295.800781 280.636719 C 287.589844 291.71875 279.367188 302.804688 271.140625 313.886719 C 266.585938 320.042969 261.976562 326.320312 257.949219 332.863281 C 257.324219 333.84375 256.730469 334.835938 256.152344 335.832031 C 254.371094 338.875 252.71875 341.984375 251.289062 345.167969 C 250.773438 346.300781 250.28125 347.433594 249.828125 348.578125 C 247.976562 353.195312 246.585938 357.980469 245.808594 362.949219 C 245.765625 363.160156 245.742188 363.359375 245.714844 363.574219 C 246.292969 358.519531 247.175781 353.507812 248.394531 348.570312 C 248.636719 347.546875 248.898438 346.527344 249.175781 345.519531 C 249.238281 345.296875 249.300781 345.078125 249.363281 344.855469 C 250.230469 341.730469 251.226562 338.636719 252.371094 335.605469 C 252.792969 334.445312 253.234375 333.289062 253.710938 332.160156 C 262.238281 311.257812 276.839844 292.785156 295.800781 280.636719 " fill-opacity="1" fill-rule="nonzero"/><path fill="#acb38f" d="M 333.300781 493.566406 C 333.246094 493.765625 333.183594 493.964844 333.132812 494.167969 C 332.015625 493.902344 330.898438 493.640625 329.789062 493.347656 C 307.972656 487.738281 287.613281 477.347656 273.003906 460.496094 C 264.269531 450.421875 257.914062 438.429688 253.351562 425.882812 C 246.921875 408.265625 243.980469 389.296875 245.101562 370.59375 C 244.851562 378.371094 245.894531 386.199219 247.386719 393.863281 C 251.6875 415.894531 259.863281 437.445312 273.390625 455.347656 C 286.925781 473.253906 306.113281 487.335938 327.945312 492.480469 C 328.585938 492.632812 329.238281 492.785156 329.890625 492.910156 C 331.027344 493.164062 332.152344 493.375 333.300781 493.566406 " fill-opacity="1" fill-rule="nonzero"/><path fill="#acb38f" d="M 351.277344 495.175781 C 351.117188 495.890625 350.953125 496.597656 350.78125 497.300781 C 349.734375 497.175781 348.691406 497.039062 347.648438 496.882812 C 347.785156 496.28125 347.910156 495.664062 348.027344 495.0625 C 349.101562 495.113281 350.183594 495.148438 351.277344 495.175781 " fill-opacity="1" fill-rule="nonzero"/><path fill="#acb38f" d="M 474.421875 409.945312 C 467.109375 430.109375 455.023438 448.230469 441.617188 464.988281 C 435.507812 472.640625 428.996094 480.136719 420.957031 485.738281 C 404.519531 497.199219 383.46875 499.539062 363.363281 498.429688 C 362.332031 498.367188 361.304688 498.304688 360.273438 498.230469 C 359.609375 498.179688 358.949219 498.132812 358.285156 498.082031 C 358.597656 497.125 358.886719 496.167969 359.179688 495.210938 C 360.886719 495.199219 362.597656 495.175781 364.308594 495.136719 C 364.808594 495.125 365.3125 495.113281 365.816406 495.097656 C 378.765625 494.769531 392.085938 493.988281 403.84375 488.554688 C 415.300781 483.261719 424.367188 473.988281 433.101562 464.863281 C 449.679688 447.558594 466.625 429.28125 473.808594 406.410156 C 481.984375 380.433594 476.273438 351.761719 464.554688 327.191406 C 459.144531 315.867188 452.414062 305.027344 443.492188 296.210938 C 436.8125 289.617188 428.976562 284.234375 420.695312 279.816406 C 383.046875 259.796875 334.984375 260.992188 298.375 282.847656 C 301.835938 275.414062 310.410156 272.050781 318.285156 269.773438 C 346.566406 261.582031 377.597656 258.550781 405.035156 269.234375 C 423.757812 276.53125 439.671875 289.792969 452.9375 304.890625 C 463.734375 317.183594 473.128906 331.078125 477.847656 346.75 C 484.035156 367.296875 481.742188 389.769531 474.421875 409.945312 " fill-opacity="1" fill-rule="nonzero"/><path fill="#acb38f" d="M 336.496094 473.820312 C 336.46875 474.3125 336.445312 474.808594 336.402344 475.304688 C 335.023438 474.902344 333.636719 474.464844 332.28125 474 C 307.546875 465.578125 285.90625 447.703125 274.398438 424.160156 C 266.261719 407.503906 263.472656 388.578125 265.554688 370.179688 C 265.574219 370.09375 265.585938 370.003906 265.597656 369.917969 C 266.238281 364.347656 267.332031 358.804688 268.867188 353.410156 C 268.953125 353.117188 269.03125 352.816406 269.117188 352.527344 C 270.5625 347.621094 272.359375 342.824219 274.515625 338.210938 C 274.640625 337.9375 274.765625 337.65625 274.894531 337.382812 C 279.578125 327.527344 285.855469 318.480469 293.628906 310.78125 C 289.199219 319.210938 284.761719 327.625 280.324219 336.058594 C 279.832031 336.992188 279.34375 337.917969 278.851562 338.855469 C 278.628906 339.289062 278.398438 339.71875 278.1875 340.160156 C 275.945312 344.464844 273.820312 348.816406 272.085938 353.335938 C 271.9375 353.710938 271.792969 354.097656 271.65625 354.476562 C 271.445312 355.042969 271.242188 355.613281 271.054688 356.191406 C 264.460938 375.757812 267.015625 397.777344 275.84375 416.445312 C 284.675781 435.105469 299.40625 450.582031 316.320312 462.410156 C 321.390625 465.957031 326.746094 469.207031 332.332031 471.925781 C 333.699219 472.589844 335.097656 473.21875 336.496094 473.820312 " fill-opacity="1" fill-rule="nonzero"/><path fill="#acb38f" d="M 351.089844 478.453125 C 350.765625 478.417969 350.449219 478.367188 350.132812 478.324219 C 350.152344 478.304688 350.152344 478.273438 350.132812 478.25 C 350.449219 478.324219 350.78125 478.390625 351.089844 478.453125 " fill-opacity="1" fill-rule="nonzero"/><path fill="#acb38f" d="M 353.707031 478.777344 C 353.707031 478.832031 353.707031 478.882812 353.695312 478.933594 C 352.824219 478.796875 351.960938 478.640625 351.089844 478.453125 C 351.960938 478.578125 352.824219 478.679688 353.707031 478.777344 " fill-opacity="1" fill-rule="nonzero"/><path fill="#acb38f" d="M 373.578125 478.820312 C 371.8125 479.132812 370.042969 479.367188 368.257812 479.523438 C 366.722656 479.660156 365.1875 479.722656 363.640625 479.734375 L 362.964844 479.734375 C 362.988281 479.597656 363.011719 479.460938 363.027344 479.316406 C 364.785156 479.347656 366.542969 479.316406 368.308594 479.230469 C 370.066406 479.144531 371.824219 479.019531 373.578125 478.820312 " fill-opacity="1" fill-rule="nonzero"/><path fill="#acb38f" d="M 461.058594 379.414062 C 460.777344 390.296875 460.269531 401.371094 456.589844 411.613281 C 450.558594 428.484375 436.773438 441.199219 423.472656 453.1875 C 415.523438 460.359375 407.441406 467.621094 397.816406 472.285156 C 390.863281 475.660156 383.296875 477.585938 375.640625 478.578125 C 374.957031 478.667969 374.28125 478.753906 373.601562 478.820312 C 385.320312 476.742188 396.476562 471.34375 406.210938 464.386719 C 418.667969 455.464844 429.101562 444.050781 439.304688 432.601562 C 443.261719 428.160156 447.25 423.632812 450.101562 418.410156 C 453.5 412.179688 455.1875 405.1875 456.339844 398.191406 C 461.671875 366.078125 454.792969 329.613281 429.796875 308.78125 C 422.304688 302.539062 413.574219 297.996094 404.9375 293.492188 C 393.355469 287.476562 381.21875 281.3125 368.171875 281.238281 C 361.59375 281.183594 355.117188 282.710938 348.742188 284.371094 C 329.449219 289.414062 309.925781 296.097656 294.945312 309.257812 C 316.675781 287.742188 348.765625 277.195312 379.019531 281.625 C 409.273438 286.058594 436.992188 305.359375 451.652344 332.207031 C 455.1875 338.664062 458 345.546875 459.523438 352.742188 C 461.375 361.476562 461.28125 370.496094 461.058594 379.414062 " fill-opacity="1" fill-rule="nonzero"/><path fill="#acb38f" d="M 122.972656 537.839844 C 126.800781 544.207031 131.082031 550.269531 135.847656 555.921875 C 133.007812 553.089844 130.367188 550.058594 128.082031 546.746094 C 126.144531 543.921875 124.472656 540.921875 122.972656 537.839844 " fill-opacity="1" fill-rule="nonzero"/><path fill="#acb38f" d="M 191.457031 341.683594 C 197.417969 339.59375 203.53125 337.507812 209.703125 336.097656 L 184.59375 344.277344 C 185.234375 343.960938 185.886719 343.675781 186.539062 343.394531 C 188.183594 342.824219 189.824219 342.257812 191.457031 341.683594 " fill-opacity="1" fill-rule="nonzero"/><path fill="#acb38f" d="M 117.636719 525.183594 C 119.300781 529.4375 121.003906 533.714844 122.972656 537.839844 C 118.699219 530.722656 114.988281 523.230469 111.832031 515.566406 C 105.785156 500.863281 101.636719 485.261719 100.679688 469.378906 C 98.628906 435.117188 112.097656 400.527344 135.574219 375.515625 C 148.777344 361.445312 165.039062 350.390625 182.714844 342.769531 C 191.582031 338.953125 200.824219 335.984375 210.261719 333.917969 C 212.707031 333.378906 215.3125 333.128906 217.964844 332.992188 C 207.199219 335.433594 196.640625 338.917969 186.539062 343.394531 C 183.144531 344.589844 179.746094 345.773438 176.355469 346.953125 L 184.59375 344.277344 C 158.6875 356.097656 135.929688 374.421875 120.761719 398.414062 C 116.25 405.550781 112.421875 413.125 109.359375 421 C 104.113281 434.476562 101.09375 448.90625 101.460938 463.378906 C 101.996094 484.78125 109.8125 505.25 117.636719 525.183594 " fill-opacity="1" fill-rule="nonzero"/><path fill="#acb38f" d="M 219.488281 332.917969 C 218.984375 332.925781 218.46875 332.949219 217.964844 332.992188 C 219.234375 332.6875 220.507812 332.410156 221.785156 332.160156 L 219.488281 332.917969 " fill-opacity="1" fill-rule="nonzero"/><path fill="#acb38f" d="M 226.148438 331.3125 C 224.695312 331.582031 223.234375 331.855469 221.785156 332.160156 L 223.332031 331.65625 C 224.277344 331.527344 225.210938 331.414062 226.148438 331.3125 " fill-opacity="1" fill-rule="nonzero"/><path fill="#acb38f" d="M 209.703125 336.097656 L 219.488281 332.917969 C 225.726562 332.625 232.121094 332.710938 237.351562 330.800781 C 238.320312 332.246094 237.101562 334.335938 235.46875 334.949219 C 233.835938 335.558594 232.007812 335.191406 230.289062 334.910156 C 223.410156 333.84375 216.519531 334.550781 209.703125 336.097656 " fill-opacity="1" fill-rule="nonzero"/><path fill="#acb38f" d="M 242.496094 331.097656 C 242.960938 331.109375 243.414062 331.140625 243.882812 331.175781 C 243.738281 331.476562 243.601562 331.792969 243.476562 332.109375 C 243.136719 331.804688 242.8125 331.464844 242.496094 331.097656 " fill-opacity="1" fill-rule="nonzero"/><path fill="#acb38f" d="M 257.949219 332.863281 C 257.324219 333.84375 256.730469 334.835938 256.152344 335.832031 C 254.855469 335.804688 253.585938 335.742188 252.371094 335.605469 C 252.792969 334.445312 253.234375 333.289062 253.710938 332.160156 C 255.136719 332.359375 256.539062 332.582031 257.949219 332.863281 " fill-opacity="1" fill-rule="nonzero"/><path fill="#acb38f" d="M 369.058594 473.367188 C 368.925781 475.335938 368.65625 477.292969 368.308594 479.230469 C 368.296875 479.316406 368.269531 479.421875 368.257812 479.523438 C 367.613281 482.980469 366.710938 486.417969 365.777344 489.8125 C 365.300781 491.589844 364.808594 493.363281 364.308594 495.136719 C 363.996094 496.230469 363.679688 497.335938 363.363281 498.429688 C 362.15625 502.535156 360.902344 506.636719 359.542969 510.703125 C 359.316406 511.367188 359.101562 512.039062 358.863281 512.691406 C 352.699219 530.617188 344.527344 547.742188 331.585938 561.382812 C 316.320312 577.476562 295.5 587.417969 274.0625 593.066406 C 233.089844 603.859375 186.464844 598.917969 153.152344 572.742188 C 146.808594 567.75 141.042969 562.089844 135.847656 555.921875 C 138.488281 558.566406 141.285156 561.050781 144.125 563.449219 C 153.804688 571.636719 164.144531 579.164062 175.539062 584.722656 C 215.207031 604.078125 263.828125 597.164062 302.820312 576.46875 C 313.785156 570.640625 324.371094 563.671875 332.417969 554.238281 C 342.664062 542.21875 348.214844 527.007812 353.496094 512.101562 C 353.570312 511.882812 353.644531 511.671875 353.71875 511.457031 C 353.84375 511.101562 353.972656 510.765625 354.085938 510.410156 C 355.527344 506.335938 356.960938 502.21875 358.285156 498.082031 C 358.597656 497.125 358.886719 496.167969 359.179688 495.210938 C 360.734375 490.105469 362.058594 484.945312 362.964844 479.734375 C 362.988281 479.597656 363.011719 479.460938 363.027344 479.316406 C 363.816406 474.652344 364.257812 469.945312 364.207031 465.191406 C 364.058594 452.453125 360.347656 440.0625 356.601562 427.882812 C 352.210938 413.566406 347.574219 398.945312 338.519531 387.003906 C 330.257812 376.109375 318.8125 368.128906 307.570312 360.339844 C 299.550781 354.78125 291.527344 349.222656 283.511719 343.675781 C 281.777344 342.464844 280.007812 341.242188 278.1875 340.160156 C 276.988281 339.433594 275.769531 338.773438 274.515625 338.210938 C 274.640625 337.9375 274.765625 337.65625 274.894531 337.382812 C 276.222656 337.84375 277.542969 338.339844 278.851562 338.855469 C 296.457031 345.695312 312.554688 356.695312 325.628906 370.382812 C 347.320312 393.105469 361 422.789062 367.214844 453.601562 C 368.53125 460.105469 369.527344 466.753906 369.058594 473.367188 " fill-opacity="1" fill-rule="nonzero"/><path fill="#acb38f" d="M 324.324219 391.835938 C 313.355469 379.085938 299.910156 368.410156 285.015625 360.59375 C 280.671875 358.316406 276.210938 356.277344 271.65625 354.476562 C 270.730469 354.097656 269.796875 353.75 268.867188 353.410156 C 268.953125 353.117188 269.03125 352.816406 269.117188 352.527344 C 270.109375 352.78125 271.105469 353.054688 272.085938 353.335938 C 293 359.527344 311.03125 373.980469 324.324219 391.835938 " fill-opacity="1" fill-rule="nonzero"/><path fill="#acb38f" d="M 251.289062 345.167969 C 250.773438 346.300781 250.28125 347.433594 249.828125 348.578125 C 249.351562 348.578125 248.871094 348.570312 248.394531 348.570312 C 248.636719 347.546875 248.898438 346.527344 249.175781 345.519531 C 249.238281 345.296875 249.300781 345.078125 249.363281 344.855469 C 250.003906 344.941406 250.648438 345.042969 251.289062 345.167969 " fill-opacity="1" fill-rule="nonzero"/><path fill="#acb38f" d="M 353.707031 478.777344 C 353.707031 478.832031 353.707031 478.882812 353.695312 478.933594 C 353.277344 484.40625 352.476562 489.839844 351.277344 495.175781 C 351.117188 495.890625 350.953125 496.597656 350.78125 497.300781 C 349.761719 501.480469 348.5 505.589844 347.007812 509.617188 C 346.828125 510.082031 346.652344 510.535156 346.480469 510.988281 C 344.023438 517.28125 340.996094 523.335938 337.359375 529.046875 C 328.546875 542.902344 316.597656 554.5 303.738281 564.691406 C 297.5 569.636719 291 574.292969 283.867188 577.839844 C 261.230469 589.128906 234.363281 588.269531 209.601562 583.078125 C 189.46875 578.859375 169.488281 571.734375 153.519531 558.753906 C 130.910156 540.355469 118.5 511.78125 113.707031 483.019531 C 112.566406 476.164062 111.796875 469.207031 112.074219 462.261719 C 112.410156 453.515625 114.386719 444.90625 116.574219 436.429688 C 120.574219 421.011719 125.464844 405.515625 134.605469 392.464844 C 151.457031 368.410156 180.390625 355.875 208.851562 348.65625 C 217.109375 346.550781 225.738281 344.84375 234.300781 344.328125 C 235.816406 344.222656 237.351562 344.171875 238.875 344.171875 C 238.402344 345.644531 237.960938 347.128906 237.554688 348.613281 C 236.109375 348.644531 234.675781 348.695312 233.226562 348.757812 C 223.273438 349.191406 213.363281 350.289062 203.605469 352.378906 C 183.785156 356.617188 164.546875 365.160156 149.808594 379.085938 C 128.28125 399.472656 118.183594 429.734375 116.796875 459.355469 C 116.414062 467.683594 116.648438 476.050781 117.808594 484.292969 C 122.960938 521.183594 147.523438 554.617188 180.820312 571.257812 C 214.113281 587.910156 255.183594 587.589844 288.59375 571.171875 C 304.515625 563.332031 318.8125 551.972656 329.410156 537.742188 C 335.636719 529.386719 340.414062 520.1875 343.820312 510.484375 C 343.976562 510.058594 344.125 509.617188 344.261719 509.175781 C 345.621094 505.152344 346.753906 501.050781 347.648438 496.882812 C 347.785156 496.28125 347.910156 495.664062 348.027344 495.0625 C 349.121094 489.566406 349.824219 483.964844 350.132812 478.324219 C 350.152344 478.304688 350.152344 478.273438 350.132812 478.25 C 351.53125 453.789062 345.796875 428.550781 334.027344 407 C 331.164062 401.765625 327.914062 396.664062 324.324219 391.835938 C 334.910156 404.117188 343.195312 418.335938 348.277344 433.734375 C 353.042969 448.179688 354.863281 463.621094 353.707031 478.777344 " fill-opacity="1" fill-rule="nonzero"/><path fill="#acb38f" d="M 266.414062 370.421875 C 266.125 370.335938 265.847656 370.253906 265.554688 370.179688 C 265.574219 370.09375 265.585938 370.003906 265.597656 369.917969 C 265.871094 370.066406 266.152344 370.246094 266.414062 370.421875 " fill-opacity="1" fill-rule="nonzero"/><path fill="#acb38f" d="M 319.570312 418.738281 C 313.230469 410.421875 305.632812 403 298.113281 395.675781 C 290.621094 388.390625 282.953125 380.96875 273.484375 376.546875 C 271.167969 375.464844 268.289062 373.804688 268.710938 371.277344 C 290.242188 380.96875 308.402344 397.9375 319.570312 418.738281 " fill-opacity="1" fill-rule="nonzero"/><path fill="#acb38f" d="M 245.386719 366.644531 L 245.335938 366.644531 C 245.386719 366.203125 245.441406 365.75 245.472656 365.296875 L 245.527344 365.296875 C 245.472656 365.75 245.429688 366.191406 245.386719 366.644531 " fill-opacity="1" fill-rule="nonzero"/><path fill="#acb38f" d="M 336.496094 473.820312 C 336.46875 474.3125 336.445312 474.808594 336.402344 475.304688 C 335.992188 481.460938 334.933594 487.585938 333.300781 493.566406 C 333.246094 493.765625 333.183594 493.964844 333.132812 494.167969 C 332.039062 498.070312 330.683594 501.894531 329.101562 505.605469 C 328.921875 505.996094 328.757812 506.375 328.597656 506.746094 C 326.347656 511.808594 323.640625 516.640625 320.507812 521.183594 C 301.941406 548.070312 269.886719 564.214844 237.308594 566.542969 C 229.367188 567.105469 221.347656 566.921875 213.554688 565.386719 C 183.75 559.492188 159.769531 541.101562 146.136719 514.523438 C 133.289062 489.460938 127.652344 459.0625 137.382812 431.960938 C 146.34375 407.011719 165.59375 385.605469 190.085938 375.503906 C 202.910156 370.210938 216.753906 368.003906 230.554688 366.445312 C 231.53125 366.328125 232.5 366.222656 233.480469 366.117188 C 233.722656 366.09375 233.972656 366.066406 234.207031 366.042969 C 234.183594 366.191406 234.171875 366.339844 234.160156 366.496094 C 232.953125 366.53125 231.734375 366.609375 230.523438 366.695312 C 201.46875 368.847656 173.171875 383.003906 155.457031 406.242188 C 130.378906 439.125 128.582031 488.105469 151.699219 522.386719 C 174.808594 556.679688 221.347656 573.335938 260.757812 560.902344 C 272.046875 557.34375 282.585938 551.703125 292.378906 545.050781 C 303.160156 537.742188 313.242188 528.996094 320.121094 517.921875 C 322.472656 514.148438 324.410156 510.132812 326.007812 505.984375 C 326.167969 505.589844 326.304688 505.1875 326.460938 504.800781 C 327.828125 501.0625 328.921875 497.238281 329.789062 493.347656 C 329.828125 493.199219 329.867188 493.050781 329.890625 492.910156 C 330.027344 492.292969 330.15625 491.664062 330.28125 491.050781 C 331.398438 485.433594 332.066406 479.734375 332.28125 474 C 332.304688 473.304688 332.332031 472.617188 332.332031 471.925781 C 332.648438 454.117188 328.585938 436.222656 320.433594 420.382812 C 320.148438 419.832031 319.855469 419.289062 319.570312 418.738281 C 321.941406 421.832031 324.136719 425.054688 326.09375 428.421875 C 334.015625 442.136719 337.308594 458.019531 336.496094 473.820312 " fill-opacity="1" fill-rule="nonzero"/></svg>